HIERARCHY
ROOT SpineBase
{
  OFFSET 0.000000 0.000000 0.000000
  CHANNELS 6 Xposition Yposition Zposition Zrotation Xrotation Yrotation
  JOINT SpineMid
  {
    OFFSET 0.000000 29.011666 0.000000
    CHANNELS 3 Zrotation Xrotation Yrotation
    JOINT SpineShoulder
    {
      OFFSET 0.029509 21.560545 -0.624494
      CHANNELS 3 Zrotation Xrotation Yrotation
      JOINT Neck
      {
        OFFSET 0.028725 7.149559 -0.500547
        CHANNELS 3 Zrotation Xrotation Yrotation
        JOINT Head
        {
          OFFSET -4.944711 13.196223 -1.966411
          CHANNELS 3 Zrotation Xrotation Yrotation
          End Site
          {
            OFFSET 0 0 0
          }
        }
      }
      JOINT ShoulderLeft
      {
        OFFSET -15.985470 -4.847688 6.054432
        CHANNELS 3 Zrotation Xrotation Yrotation
        JOINT ElbowLeft
        {
          OFFSET -1.790851 -26.222270 1.889212
          CHANNELS 3 Zrotation Xrotation Yrotation
          JOINT WristLeft
          {
            OFFSET 1.037378 -20.553076 -5.505572
            CHANNELS 3 Zrotation Xrotation Yrotation
            JOINT HandLeft
            {
              OFFSET 0.517165 -2.236649 -0.389342
              CHANNELS 3 Zrotation Xrotation Yrotation
              JOINT HandTipLeft
              {
                OFFSET 0.896143 -7.776698 -0.178675
                CHANNELS 3 Zrotation Xrotation Yrotation
                End Site
                {
                  OFFSET 0 0 0
                }
              }
              JOINT ThumbLeft
              {
                OFFSET -2.690176 -2.250090 -1.984448
                CHANNELS 3 Zrotation Xrotation Yrotation
                End Site
                {
                  OFFSET 0 0 0
                }
              }
            }
          }
        }
      }
      JOINT ShoulderRight
      {
        OFFSET 14.271615 -2.591904 -7.620640
        CHANNELS 3 Zrotation Xrotation Yrotation
        JOINT ElbowRight
        {
          OFFSET 6.290046 -25.203158 -1.689555
          CHANNELS 3 Zrotation Xrotation Yrotation
          JOINT WristRight
          {
            OFFSET -2.801485 -19.895568 -7.413745
            CHANNELS 3 Zrotation Xrotation Yrotation
            JOINT HandRight
            {
              OFFSET -1.952545 -5.585265 -3.557822
              CHANNELS 3 Zrotation Xrotation Yrotation
              JOINT HandTipRight
              {
                OFFSET -1.479878 -6.006860 -2.175313
                CHANNELS 3 Zrotation Xrotation Yrotation
                End Site
                {
                  OFFSET 0 0 0
                }
              }
              JOINT ThumbRight
              {
                OFFSET 1.255509 -0.199544 -5.506680
                CHANNELS 3 Zrotation Xrotation Yrotation
                End Site
                {
                  OFFSET 0 0 0
                }
              }
            }
          }
        }
      }
    }
  }
  JOINT HipLeft
  {
    OFFSET -6.424846 0.256790 -0.595088
    CHANNELS 3 Zrotation Xrotation Yrotation
    JOINT KneeLeft
    {
      OFFSET 4.570292 -27.970899 6.135445
      CHANNELS 3 Zrotation Xrotation Yrotation
      JOINT AnkleLeft
      {
        OFFSET 5.465181 -32.792662 6.533311
        CHANNELS 3 Zrotation Xrotation Yrotation
        JOINT FootLeft
        {
          OFFSET -3.679707 -3.906412 -11.996056
          CHANNELS 3 Zrotation Xrotation Yrotation
          End Site
          {
            OFFSET 0 0 0
          }
        }
      }
    }
  }
  JOINT HipRight
  {
    OFFSET 6.984845 1.271357 -5.731295
    CHANNELS 3 Zrotation Xrotation Yrotation
    JOINT KneeRight
    {
      OFFSET 7.186402 -28.998797 4.239004
      CHANNELS 3 Zrotation Xrotation Yrotation
      JOINT AnkleRight
      {
        OFFSET 2.900970 -33.296622 7.376819
        CHANNELS 3 Zrotation Xrotation Yrotation
        JOINT FootRight
        {
          OFFSET -1.758720 -7.770605 -4.959365
          CHANNELS 3 Zrotation Xrotation Yrotation
          End Site
          {
            OFFSET 0 0 0
          }
        }
      }
    }
  }
}
MOTION
Frames: 14
Frame Time: 0.033333
-31.857841 68.890388 346.409676 -0.000000 0.000000 20.957939 0.000000 0.000000 -20.957939 -0.000000 0.000000 0.000000 -0.000000 0.000000 0.000000 0.000000 0.000000 0.000000 -0.000000 0.000000 0.000000 -0.000000 0.000000 0.000000 -0.000000 0.000000 0.000000 -0.000000 0.000000 0.000000 0.000000 0.000000 0.000000 0.000000 0.000000 0.000000 -0.000000 0.000000 0.000000 -0.000000 0.000000 0.000000 -0.000000 0.000000 0.000000 -0.000000 0.000000 0.000000 0.000000 0.000000 0.000000 0.000000 0.000000 0.000000 0.000000 0.000000 -20.957939 -0.000000 0.000000 0.000000 -0.000000 0.000000 0.000000 0.000000 0.000000 0.000000 0.000000 0.000000 -20.957939 -0.000000 0.000000 0.000000 -0.000000 0.000000 0.000000 0.000000 0.000000 0.000000
-31.862228 68.865652 346.367500 0.000479 0.016698 21.063790 -0.006448 -0.015410 -21.063791 -0.000000 0.000000 0.000000 -0.000000 0.000000 0.000000 0.000000 0.000000 0.000000 -0.000000 0.000000 0.000000 -0.000000 0.000000 0.000000 0.913347 1.373702 0.147126 -0.580296 0.803487 0.075577 0.000000 0.000000 0.000000 0.000000 0.000000 0.000000 -0.000000 0.000000 0.000000 2.192653 -1.679402 -0.553027 -0.008608 1.837375 -0.916428 -0.123718 -1.481100 1.075840 0.000000 0.000000 0.000000 0.000000 0.000000 0.000000 -0.006448 -0.015410 -21.063791 -0.000000 0.000000 0.000000 -0.000000 0.000000 0.000000 0.000000 0.000000 0.000000 -0.006448 -0.015410 -21.063791 -0.000000 0.000000 0.000000 -1.992758 -1.234683 1.534351 0.000000 0.000000 0.000000
-31.878587 68.843334 346.328177 -0.012295 0.034287 21.156762 -0.000909 -0.036413 -21.156758 -0.000000 0.000000 0.000000 -0.000000 0.000000 0.000000 0.000000 0.000000 0.000000 -0.000000 0.000000 0.000000 -0.000000 0.000000 0.000000 1.974784 3.007112 0.297299 -1.274305 1.082339 0.064803 0.000000 0.000000 0.000000 0.000000 0.000000 0.000000 -0.000000 0.000000 0.000000 3.569025 -2.797080 -0.860863 -0.215001 3.120555 -1.440146 0.173810 -2.708064 1.709206 0.000000 0.000000 0.000000 0.000000 0.000000 0.000000 -0.000909 -0.036413 -21.156758 -0.000000 0.000000 0.000000 -0.000000 0.000000 0.000000 0.000000 0.000000 0.000000 -0.000909 -0.036413 -21.156758 0.946492 0.193628 0.224891 -4.405579 -2.428705 2.419466 0.000000 0.000000 0.000000
-31.906919 68.823434 346.291705 -0.038300 0.052772 21.236845 0.016584 -0.063061 -21.236818 -0.000000 0.000000 0.000000 -0.000000 0.000000 0.000000 0.000000 0.000000 0.000000 -0.000000 0.000000 0.000000 -0.000000 0.000000 0.000000 3.144159 4.851600 0.435808 -2.042606 0.847625 -0.034626 0.000000 0.000000 0.000000 0.000000 0.000000 0.000000 -0.000000 0.000000 0.000000 4.160355 -3.354837 -0.972107 -0.631391 3.889675 -1.511606 0.876441 -3.718490 1.868554 0.000000 0.000000 0.000000 0.000000 0.000000 0.000000 0.016584 -0.063061 -21.236818 -0.000000 0.000000 0.000000 -0.000000 0.000000 0.000000 0.000000 0.000000 0.000000 0.016584 -0.063061 -21.236818 1.225041 0.236472 0.289353 -5.610565 -3.219999 3.071325 0.000000 0.000000 0.000000
-31.947224 68.805952 346.258085 -0.077527 0.072158 21.304057 0.046013 -0.095394 -21.303970 -0.000000 0.000000 0.000000 -0.000000 0.000000 0.000000 0.000000 0.000000 0.000000 -0.000000 0.000000 0.000000 -0.000000 0.000000 0.000000 4.329000 6.774282 0.547508 -2.795180 0.200036 -0.206780 0.000000 0.000000 0.000000 0.000000 0.000000 0.000000 -0.000000 0.000000 0.000000 3.982975 -3.357866 -0.909405 -1.251175 4.158279 -1.118659 1.952251 -4.544563 1.543995 0.000000 0.000000 0.000000 0.000000 0.000000 0.000000 0.046013 -0.095394 -21.303970 -0.000000 0.000000 0.000000 -0.000000 0.000000 0.000000 0.000000 0.000000 0.000000 0.046013 -0.095394 -21.303970 1.367563 0.241227 0.320949 -6.143486 -3.694997 3.371204 0.000000 0.000000 0.000000
-31.999501 68.790889 346.227317 -0.129973 0.092452 21.358443 0.087375 -0.133438 -21.358236 -0.000000 0.000000 0.000000 -0.000000 0.000000 0.000000 0.000000 0.000000 0.000000 -0.000000 0.000000 0.000000 -0.000000 0.000000 0.000000 5.383421 8.551828 0.625509 -3.389847 -0.665139 -0.410343 0.000000 0.000000 0.000000 0.000000 0.000000 0.000000 -0.000000 0.000000 0.000000 3.035485 -2.808821 -0.669975 -2.045150 3.908418 -0.293939 3.353029 -5.208529 0.743953 0.000000 0.000000 0.000000 0.000000 0.000000 0.000000 0.087375 -0.133438 -21.358236 -0.000000 0.000000 0.000000 -0.000000 0.000000 0.000000 0.000000 0.000000 0.000000 0.087375 -0.133438 -21.358236 1.371866 0.207304 0.319323 -6.003442 -3.843897 3.326763 0.000000 0.000000 0.000000
-31.984761 68.753989 346.150982 -0.086970 0.163266 21.297798 0.021730 -0.183705 -21.297639 -0.000000 0.000000 0.000000 -0.000000 0.000000 0.000000 0.000000 0.000000 0.000000 0.452141 0.768336 -0.022948 -0.451873 -0.768493 0.016886 5.013250 9.336055 0.859722 -2.095334 -0.646198 -0.492173 0.000000 0.000000 0.000000 0.000000 0.000000 0.000000 -0.000000 0.000000 0.000000 2.286476 -2.306558 -0.486276 -2.307801 2.285221 0.578347 4.578644 -5.044944 -0.219125 0.000000 0.000000 0.000000 0.000000 0.000000 0.000000 0.021730 -0.183705 -21.297639 -0.000000 0.000000 0.000000 -0.000000 0.000000 0.000000 0.000000 0.000000 0.000000 0.021730 -0.183705 -21.297639 1.097596 0.083369 0.249475 -4.400630 -3.569873 2.572250 0.000000 0.000000 0.000000
-32.156549 68.774481 346.102497 -0.299474 0.200485 21.273827 0.206329 -0.295478 -21.272771 -0.000000 0.000000 0.000000 -0.000000 0.000000 0.000000 0.000000 0.000000 0.000000 0.530358 0.897459 -0.027261 -0.529996 -0.897673 0.018955 6.083949 11.435923 0.954856 -2.143889 -2.147508 -0.724632 0.000000 0.000000 0.000000 0.000000 0.000000 0.000000 -0.000000 0.000000 0.000000 -0.000000 0.000000 0.000000 -4.045408 0.646181 2.337340 6.930481 -5.253321 -2.182143 0.000000 0.000000 0.000000 0.000000 0.000000 0.000000 0.206329 -0.295478 -21.272771 0.772361 -0.298374 0.105991 -0.771818 0.299775 -0.101960 0.000000 0.000000 0.000000 0.206329 -0.295478 -21.272771 0.788843 -0.084526 0.167859 -2.612778 -2.798782 1.625877 0.000000 0.000000 0.000000
-32.354177 68.789299 346.128491 -0.530342 0.157889 21.408307 0.436126 -0.340569 -21.406281 -0.000000 0.000000 0.000000 -0.000000 0.000000 0.000000 0.000000 0.000000 0.000000 0.596374 1.027683 -0.032602 -0.595885 -1.027967 0.021908 10.794011 15.591899 0.249492 -7.684881 -8.080398 -1.747925 0.000000 0.000000 0.000000 0.000000 0.000000 0.000000 -0.000000 0.000000 0.000000 -3.656242 1.653839 1.171193 -6.063611 0.547839 4.099689 9.490586 -6.084727 -4.335800 0.000000 0.000000 0.000000 0.000000 0.000000 0.000000 1.328768 -0.499980 -21.175908 -0.069535 -0.521628 -0.114101 -0.821089 0.346097 -0.103615 0.000000 0.000000 0.000000 0.436126 -0.340569 -21.406281 -0.000000 0.000000 0.000000 -0.161166 -2.133978 0.589714 0.000000 0.000000 0.000000
-32.524914 68.799325 346.212587 -0.688006 0.076648 21.584125 0.611573 -0.324358 -21.581934 -0.000000 0.000000 0.000000 -0.000000 0.000000 0.000000 0.000000 0.000000 0.000000 0.742590 1.193161 -0.035764 -0.742007 -1.193525 0.020302 4.916746 11.555679 1.291208 -2.417534 -4.775764 -1.199921 0.000000 0.000000 0.000000 0.000000 0.000000 0.000000 -0.000000 0.000000 0.000000 -8.211943 4.542252 2.684296 -8.891140 0.363878 6.012526 12.393475 -8.593053 -6.391815 0.000000 0.000000 0.000000 0.000000 0.000000 0.000000 1.844072 -0.386288 -21.253524 -0.328523 -0.756076 -0.208628 -0.843894 0.363821 -0.105015 0.000000 0.000000 0.000000 1.632000 -0.823530 -21.428575 -1.132216 0.091760 -0.142230 0.883345 -1.568290 -0.198800 0.000000 0.000000 0.000000
-32.603893 68.783408 346.341086 -0.763266 -0.007465 21.843657 0.711249 -0.277057 -21.841987 -0.000000 0.000000 0.000000 -0.000000 0.000000 0.000000 0.000000 0.000000 0.000000 0.842488 1.344712 -0.041085 -1.621768 -0.955943 0.234059 7.301257 9.244498 0.360995 -4.433180 -3.271084 -0.719954 0.000000 0.000000 0.000000 0.000000 0.000000 0.000000 0.679440 0.860299 0.163738 -17.105672 7.405258 5.518686 -7.856600 0.229879 6.160156 11.996478 -10.413735 -7.413889 0.000000 0.000000 0.000000 0.000000 0.000000 0.000000 2.095229 -0.150943 -21.462262 -0.376183 -0.987588 -0.256115 -1.985239 2.309893 1.430280 0.000000 0.000000 0.000000 2.119326 -0.656165 -21.576993 -1.448762 -0.165409 -0.255619 1.107164 -1.474656 -0.362379 0.000000 0.000000 0.000000
-32.600101 68.771106 346.496417 -0.766335 -0.094253 22.244389 0.744984 -0.202863 -22.243701 -0.000000 0.000000 0.000000 0.671710 -1.765937 -0.548843 0.000000 0.000000 0.000000 0.257032 1.174485 -0.064388 -0.255765 -1.174761 0.059131 2.683632 7.703848 1.116865 -2.241626 -4.024798 -1.019771 0.000000 0.000000 0.000000 0.000000 0.000000 0.000000 1.041680 2.456627 0.519107 -28.389977 10.073510 9.273975 -4.376060 -0.602587 5.509151 9.725349 -11.856236 -8.335066 0.000000 0.000000 0.000000 0.000000 0.000000 0.000000 2.118803 0.212933 -21.851492 -0.286631 -1.242212 -0.275714 -0.835387 0.340880 -0.107336 0.000000 0.000000 0.000000 2.474976 -0.390835 -21.872184 -1.675463 -0.470114 -0.369427 1.056037 -1.157555 -0.404790 0.000000 0.000000 0.000000
-32.527494 68.734210 346.644176 -0.722272 -0.125414 22.627213 0.714928 -0.162124 -22.626992 -0.000000 0.000000 0.000000 1.205590 -3.359215 -1.035437 0.000000 0.000000 0.000000 0.081991 1.106803 -0.070529 -0.080643 -1.106902 0.068958 2.107920 7.110369 1.131160 -2.527412 -5.616829 -1.258324 0.000000 0.000000 0.000000 0.000000 0.000000 0.000000 1.349655 4.539924 0.984124 -41.241020 12.181429 13.553327 0.949488 -2.063970 4.485570 3.252933 -11.133475 -8.976206 0.000000 0.000000 0.000000 0.000000 0.000000 0.000000 1.938310 0.557422 -22.258446 -0.072516 -1.461813 -0.260942 -0.788682 0.328858 -0.100234 0.000000 0.000000 0.000000 2.652078 -0.156197 -22.175792 -1.791680 -0.736625 -0.457336 1.228572 -0.451616 -0.680428 0.000000 0.000000 0.000000
-32.346575 68.717234 346.801436 -0.557517 -0.162064 23.355102 0.576083 -0.072234 -23.355528 -0.000000 0.000000 0.000000 1.760616 -5.218791 -1.594139 0.000000 0.000000 0.000000 0.000494 1.112923 -0.076032 0.000983 -1.112922 0.076037 0.920710 5.228259 0.997615 0.604701 -2.884014 -0.736684 0.000000 0.000000 0.000000 0.000000 0.000000 0.000000 1.873573 8.278795 1.792397 -54.857867 12.232767 16.443862 6.796788 -3.479638 3.940221 -7.233283 -7.221721 -9.189814 0.000000 0.000000 0.000000 0.000000 0.000000 0.000000 1.451467 1.184319 -23.051062 0.443911 -1.800787 -0.193861 0.185481 -2.415388 -0.468976 0.000000 0.000000 0.000000 2.497770 0.095802 -22.881890 -1.705279 -0.901874 -0.487455 0.833307 -0.019259 -0.528267 0.000000 0.000000 0.000000
